<?xml version="1.0" encoding="UTF-8" standalone="no"?>
<!-- Created with Inkscape (http://www.inkscape.org/) -->

<svg
   xmlns:dc="http://purl.org/dc/elements/1.1/"
   xmlns:cc="http://creativecommons.org/ns#"
   xmlns:rdf="http://www.w3.org/1999/02/22-rdf-syntax-ns#"
   xmlns:svg="http://www.w3.org/2000/svg"
   xmlns="http://www.w3.org/2000/svg"
   xmlns:sodipodi="http://sodipodi.sourceforge.net/DTD/sodipodi-0.dtd"
   xmlns:inkscape="http://www.inkscape.org/namespaces/inkscape"
   width="192"
   height="192"
   id="svg2"
   version="1.1"
   inkscape:version="0.48.5 r10040"
   sodipodi:docname="icon.svg"
   inkscape:export-filename="/Volumes/Case Sensitive/perso/bonhomme/static/icons/icon-144.png"
   inkscape:export-xdpi="67.5"
   inkscape:export-ydpi="67.5">
  <defs
     id="defs4" />
  <sodipodi:namedview
     id="base"
     pagecolor="#ffffff"
     bordercolor="#666666"
     borderopacity="1.0"
     inkscape:pageopacity="0.0"
     inkscape:pageshadow="2"
     inkscape:zoom="2.8"
     inkscape:cx="92.747819"
     inkscape:cy="103.42287"
     inkscape:document-units="px"
     inkscape:current-layer="layer1"
     showgrid="false"
     inkscape:window-width="895"
     inkscape:window-height="847"
     inkscape:window-x="335"
     inkscape:window-y="5"
     inkscape:window-maximized="0" />
  <metadata
     id="metadata7">
    <rdf:RDF>
      <cc:Work
         rdf:about="">
        <dc:format>image/svg+xml</dc:format>
        <dc:type
           rdf:resource="http://purl.org/dc/dcmitype/StillImage" />
        <dc:title></dc:title>
      </cc:Work>
    </rdf:RDF>
  </metadata>
  <g
     inkscape:label="Layer 1"
     inkscape:groupmode="layer"
     id="layer1"
     transform="translate(0,-860.36218)">
    <rect
       style="fill:#6488c6;fill-opacity:1;stroke:#000000;stroke-width:0;stroke-miterlimit:4;stroke-opacity:1;stroke-dasharray:none;stroke-dashoffset:0"
       id="rect2985"
       width="190"
       height="190"
       x="1"
       y="861.36218"
       ry="7.5000176" />
    <rect
       ry="11.428572"
       y="861.00507"
       x="-196.5"
       height="190"
       width="190"
       id="rect4075"
       style="fill:#6488c6;fill-opacity:1;stroke:#000000;stroke-width:0;stroke-miterlimit:4;stroke-opacity:1;stroke-dasharray:none;stroke-dashoffset:0" />
    <g
       id="text3774"
       style="font-size:20px;font-style:normal;font-variant:normal;font-weight:bold;font-stretch:normal;line-height:125%;letter-spacing:0px;word-spacing:0px;fill:#ffffff;fill-opacity:1;stroke:none;font-family:Monda;-inkscape-font-specification:Monda Bold"
       transform="translate(-192.85715,-1.7857143)">
      <path
         inkscape:connector-curvature="0"
         id="path3853"
         d="m 51.888256,996.38837 c -8e-6,-0.97005 -0.598966,-1.45507 -1.796875,-1.45508 -0.585943,10e-6 -1.217453,0.16277 -1.894531,0.48828 l 0,6.25973 c 0.403641,0.3125 0.944005,0.4688 1.621094,0.4688 1.380201,0 2.070304,-0.5046 2.070312,-1.5137 l 0,-4.24803 m 2.65625,4.18943 c -10e-6,1.0287 -0.380869,1.8587 -1.142578,2.4903 -0.755217,0.6315 -1.692716,0.9472 -2.8125,0.9472 -1.113287,0 -2.099614,-0.2864 -2.958984,-0.8594 l -0.263672,0.6348 -1.826172,0 0,-14.80468 2.65625,0 0,4.64844 c 0.70312,-0.37108 1.412755,-0.55663 2.128906,-0.55664 1.764315,10e-6 2.968741,0.45574 3.613281,1.36719 0.403636,0.57292 0.605459,1.23698 0.605469,1.99218 l 0,4.14061" />
      <path
         inkscape:connector-curvature="0"
         id="path3855"
         d="m 61.536694,1004.0153 c -3.033857,0 -4.550783,-1.1328 -4.550782,-3.3984 l 0,-4.13088 c -10e-7,-1.07421 0.397134,-1.9108 1.191407,-2.50976 0.800778,-0.59895 1.917313,-0.89843 3.349609,-0.89844 1.438795,10e-6 2.558585,0.30274 3.359375,0.9082 0.800771,0.59897 1.201162,1.4323 1.201172,2.5 l 0,4.13088 c -1e-5,1.6862 -0.800791,2.7409 -2.402344,3.164 -0.598966,0.1563 -1.315111,0.2344 -2.148437,0.2344 m 0,-1.8457 c 1.263013,0 1.894523,-0.4785 1.894531,-1.4355 l 0,-4.36526 c -8e-6,-0.51432 -0.159513,-0.88216 -0.478516,-1.10352 -0.319017,-0.22135 -0.791022,-0.33202 -1.416015,-0.33203 -1.263026,10e-6 -1.894536,0.47852 -1.894532,1.43555 l 0,4.36526 c -4e-6,0.5143 0.156246,0.8821 0.46875,1.1035 0.319006,0.2213 0.794266,0.332 1.425782,0.332" />
      <path
         inkscape:connector-curvature="0"
         id="path3857"
         d="m 75.403881,996.41766 c -8e-6,-0.90494 -0.615242,-1.35741 -1.845703,-1.35742 -0.52735,10e-6 -0.999354,0.13998 -1.416016,0.41992 -0.416671,0.27345 -0.625004,0.65105 -0.625,1.13282 l 0,7.17772 -2.65625,0 0,-10.48827 2.65625,0 0,0.92773 c 0.891922,-0.78124 1.933588,-1.17186 3.125,-1.17187 1.191398,10e-6 2.057283,0.306 2.597657,0.91797 0.546864,0.61199 0.820301,1.37696 0.820312,2.29492 l 0,7.51952 -2.65625,0 0,-7.37304" />
      <path
         inkscape:connector-curvature="0"
         id="path3859"
         d="m 81.146069,1003.7907 0,-14.79491 2.65625,0 0,5.32226 c 0.221349,-0.36457 0.641271,-0.66079 1.259765,-0.88867 0.618484,-0.23436 1.357415,-0.35155 2.216797,-0.35156 0.865877,10e-6 1.588532,0.27019 2.167969,0.81055 0.585927,0.53386 0.878895,1.24675 0.878906,2.13867 l 0,7.76366 -2.65625,0 0,-7.3828 c -8e-6,-0.89843 -0.595711,-1.34765 -1.787109,-1.34766 -0.53386,10e-6 -1.015631,0.13673 -1.445313,0.41016 -0.423181,0.26693 -0.63477,0.63803 -0.634765,1.11328 l 0,7.20702 -2.65625,0" />
      <path
         inkscape:connector-curvature="0"
         id="path3861"
         d="m 97.591381,1004.0153 c -3.033857,0 -4.550782,-1.1328 -4.550781,-3.3984 l 0,-4.13088 c -10e-7,-1.07421 0.397134,-1.9108 1.191406,-2.50976 0.800778,-0.59895 1.917313,-0.89843 3.349609,-0.89844 1.438795,10e-6 2.558585,0.30274 3.359375,0.9082 0.80077,0.59897 1.20116,1.4323 1.20117,2.5 l 0,4.13088 c -1e-5,1.6862 -0.80079,2.7409 -2.402341,3.164 -0.598966,0.1563 -1.315111,0.2344 -2.148438,0.2344 m 0,-1.8457 c 1.263014,0 1.894524,-0.4785 1.894531,-1.4355 l 0,-4.36526 c -7e-6,-0.51432 -0.159512,-0.88216 -0.478515,-1.10352 -0.319018,-0.22135 -0.791022,-0.33202 -1.416016,-0.33203 -1.263025,10e-6 -1.894535,0.47852 -1.894531,1.43555 l 0,4.36526 c -4e-6,0.5143 0.156246,0.8821 0.46875,1.1035 0.319006,0.2213 0.794266,0.332 1.425781,0.332" />
      <path
         inkscape:connector-curvature="0"
         id="path3863"
         d="m 104.9156,1003.7907 0,-10.48827 2.65625,0 0,0.9375 c 0.36458,-0.3776 0.83658,-0.66405 1.41602,-0.85938 0.58593,-0.20181 1.14582,-0.30272 1.67968,-0.30273 1.39973,10e-6 2.36002,0.43295 2.88086,1.29883 0.86588,-0.86588 2.02798,-1.29882 3.48633,-1.29883 1.00259,10e-6 1.80663,0.27345 2.41211,0.82031 0.61196,0.54038 0.91795,1.25327 0.91797,2.13867 l 0,7.7539 -2.65625,0 0,-7.4414 c -2e-5,-0.5078 -0.13348,-0.85285 -0.40039,-1.03515 -0.26043,-0.1888 -0.64129,-0.2832 -1.14258,-0.28321 -0.4948,10e-6 -0.97332,0.13022 -1.43555,0.39063 -0.45574,0.26042 -0.70313,0.60873 -0.74218,1.04492 l 0,7.32421 -2.65625,0 0,-7.4414 c -1e-5,-0.5078 -0.13999,-0.85285 -0.41993,-1.03515 -0.27995,-0.1888 -0.67709,-0.2832 -1.1914,-0.28321 -0.50782,10e-6 -0.99285,0.13999 -1.45508,0.41993 -0.46224,0.27344 -0.69336,0.64779 -0.69336,1.12304 l 0,7.21679 -2.65625,0" />
      <path
         inkscape:connector-curvature="0"
         id="path3865"
         d="m 123.43122,1003.7907 0,-10.48827 2.65625,0 0,0.9375 c 0.36458,-0.3776 0.83659,-0.66405 1.41602,-0.85938 0.58593,-0.20181 1.14583,-0.30272 1.67969,-0.30273 1.39973,10e-6 2.36001,0.43295 2.88086,1.29883 0.86587,-0.86588 2.02798,-1.29882 3.48633,-1.29883 1.00258,10e-6 1.80662,0.27345 2.4121,0.82031 0.61197,0.54038 0.91796,1.25327 0.91797,2.13867 l 0,7.7539 -2.65625,0 0,-7.4414 c -1e-5,-0.5078 -0.13347,-0.85285 -0.40039,-1.03515 -0.26043,-0.1888 -0.64129,-0.2832 -1.14258,-0.28321 -0.4948,10e-6 -0.97331,0.13022 -1.43554,0.39063 -0.45574,0.26042 -0.70314,0.60873 -0.74219,1.04492 l 0,7.32421 -2.65625,0 0,-7.4414 c -1e-5,-0.5078 -0.13998,-0.85285 -0.41992,-1.03515 -0.27996,-0.1888 -0.67709,-0.2832 -1.19141,-0.28321 -0.50782,10e-6 -0.99284,0.13999 -1.45508,0.41993 -0.46224,0.27344 -0.69336,0.64779 -0.69336,1.12304 l 0,7.21679 -2.65625,0" />
      <path
         inkscape:connector-curvature="0"
         id="path3867"
         d="m 144.25154,997.43329 3.76953,0 0,-1.23047 c -1e-5,-0.6315 -0.25392,-1.01887 -0.76172,-1.16211 -0.26693,-0.0781 -0.67383,-0.11392 -1.2207,-0.10742 -0.54037,10e-6 -0.97332,0.0911 -1.29883,0.27344 -0.32553,0.1823 -0.48829,0.5306 -0.48828,1.04492 l 0,1.18164 m 0.0586,6.40621 c -0.52084,-0.1106 -0.98959,-0.2962 -1.40625,-0.5566 -0.8724,-0.5339 -1.30859,-1.4583 -1.30859,-2.7734 l 0,-4.09184 c 0,-1.05468 0.40039,-1.87499 1.20117,-2.46093 0.80078,-0.58593 1.89127,-0.8789 3.27148,-0.87891 2.97526,10e-6 4.46288,1.14584 4.46289,3.4375 l 0,2.53906 -6.27929,0 0,1.70902 c -1e-5,0.5794 0.14322,0.9603 0.42968,1.1425 0.28646,0.1758 0.77148,0.2637 1.45508,0.2637 0.68359,0 1.08724,-0.032 1.21094,-0.098 0.29296,-0.1628 0.48176,-0.3581 0.56641,-0.586 0.0846,-0.2343 0.13345,-0.5403 0.14648,-0.9179 l 2.46094,0 c -0.0391,1.6145 -0.60873,2.6367 -1.70899,3.0664 -0.64453,0.2474 -1.42578,0.3711 -2.34375,0.3711 -0.91797,0.01 -1.63737,-0.049 -2.1582,-0.1661" />
    </g>
    <path
       inkscape:connector-curvature="0"
       id="path3957"
       d="m -122.46007,965.98349 c -1.26458,-0.38737 -2.15136,-0.83591 -2.15136,-1.08818 0,-0.73229 0.86438,-0.80961 2.60139,-0.23266 2.06666,0.68642 3.09837,0.66953 4.46328,-0.0731 0.82465,-0.44873 1.77668,-0.57861 4.24992,-0.57985 1.75297,0 3.37075,-0.12025 3.59507,-0.26527 0.29917,-0.19343 -0.0185,-0.73016 -1.19202,-2.01422 -1.72523,-1.88769 -3.52346,-4.86506 -4.3121,-7.13964 -0.27059,-0.78045 -0.56224,-1.61244 -0.64811,-1.84887 -0.11013,-0.30326 -0.41938,-0.14805 -1.04989,0.52691 -2.49758,2.67366 -6.87874,1.77575 -8.19862,-1.6803 -1.73365,-4.53948 3.57199,-8.70573 7.51294,-5.89955 l 0.87392,0.6223 0.19113,-0.71311 c 0.10512,-0.39222 0.19309,-1.0774 0.19548,-1.52262 0.008,-1.54038 0.97231,-4.6199 2.28627,-7.30331 1.05036,-2.14508 1.89462,-3.27689 4.1402,-5.55045 2.02872,-2.05396 2.82079,-3.07875 2.82079,-3.64954 0,-0.50457 0.44192,-1.21401 1.21337,-1.94787 l 1.21337,-1.15424 -0.88232,-1.90392 c -2.19253,-4.73122 -1.77767,-10.7939 1.03898,-15.18327 1.26048,-1.96429 4.539563,-5.02016 6.704843,-6.24843 11.02577,-6.25447 25.92794,-0.34306 28.64398,11.36252 0.87582,3.77461 -0.0376,8.79162 -2.23007,12.24879 -0.95081,1.49926 -0.95153,1.50408 -0.31982,2.13581 0.64449,0.64449 0.74623,1.06169 0.64208,2.63296 -0.0439,0.6629 0.34577,1.32677 1.55665,2.65166 5.61169,6.14005 7.14486,15.78133 3.73551,23.49049 -0.84506,1.91083 -2.85867,5.01651 -4.36441,6.73145 l -0.93729,1.06753 0.71742,0.19228 c 0.39459,0.10572 1.66163,0.1942 2.81565,0.19659 1.15401,0.003 2.92513,0.17042 3.93582,0.37341 1.4105,0.28328 2.42757,0.27872 4.37587,-0.0194 2.43396,-0.37258 2.6455,-0.3534 5.14773,0.46734 2.93929,0.96407 3.38571,1.24349 2.8471,1.7821 -0.27808,0.27808 -1.04109,0.18702 -3.12486,-0.37297 -2.42166,-0.65076 -3.03309,-0.70272 -5.02761,-0.42702 -1.31849,0.18221 -2.94177,0.20226 -3.87106,0.0478 -0.88021,-0.14633 -3.10635,-0.33692 -4.94696,-0.42362 -1.84061,-0.0867 -3.70513,-0.20477 -4.14337,-0.26249 -0.43825,-0.0577 -0.97609,-0.12733 -1.19521,-0.15471 -0.88478,-0.1106 -0.30021,-1.49388 1.43425,-3.39393 3.97775,-4.35749 6.13885,-9.58544 6.12743,-14.82299 -0.009,-4.03685 -2.1921,-9.58891 -5.00043,-12.71594 l -1.54479,-1.72007 -1.33277,0.92326 c -0.73303,0.50782 -1.33823,0.99808 -1.34488,1.08946 -0.007,0.0914 0.70634,1.15166 1.58443,2.35611 2.01096,2.75837 3.97306,6.65496 4.47064,8.87842 0.32704,1.46137 0.30832,1.85582 -0.12814,2.69985 -0.54232,1.04872 -1.80549,2.08457 -2.99085,2.45259 -1.54109,0.4785 -1.86651,0.0434 -3.27163,-4.37406 -2.5016,-7.86463 -4.32143,-10.02445 -5.74151,-6.81413 -0.60867,1.37602 -2.85922,10.07461 -2.85922,11.05121 0,1.00559 -0.84233,1.67529 -2.41722,1.92185 -1.94793,0.30492 -4.61642,-0.15502 -5.17244,-0.89156 -0.86901,-1.15112 0.41845,-5.54466 3.24451,-11.07205 0.89626,-1.75296 1.67184,-3.27383 1.72351,-3.37968 0.0517,-0.10588 -1.2377,-0.29217 -2.86526,-0.41402 -6.40784,-0.47971 -11.306573,-2.0546 -14.569623,-4.68398 l -2.02354,-1.63057 -2.32141,2.40569 c -7.92924,8.21717 -7.69402,20.90743 0.53681,28.96129 1.90885,1.86783 2.31289,2.87617 1.31514,3.28222 -0.30676,0.12484 -2.57173,0.27729 -5.03326,0.33874 -3.64645,0.091 -4.7387,0.23113 -5.89634,0.75626 -1.71099,0.77615 -2.08702,0.77031 -4.84709,-0.0752 z m 3.89164,-12.53641 c 2.64359,-1.56161 2.64359,-5.68261 0,-7.24421 -2.096,-1.23814 -4.87559,-0.13011 -5.71446,2.27793 -0.41185,1.18229 -0.41185,1.50605 0,2.68834 0.83887,2.40804 3.61846,3.51607 5.71446,2.27794 z m 37.621783,-24.75043 c 4.82134,-1.63727 7.12002,-3.45752 8.7078,-6.89544 0.81002,-1.75389 0.99026,-2.59677 1.10598,-5.17213 0.21171,-4.71203 -0.95792,-7.59428 -4.46013,-10.99075 -3.32746,-3.227 -6.45187,-4.56094 -11.24999,-4.80309 -5.58045,-0.28163 -9.7133,1.21237 -13.408003,4.84688 -4.70053,4.62396 -5.75496,10.75202 -2.85846,16.6127 2.72131,5.50619 7.040763,7.55235 15.469663,7.3281 3.57304,-0.0951 4.70811,-0.25218 6.69314,-0.92627 z m -8.92419,-3.44442 c -1.92608,-0.37612 -4.95116,-1.89802 -6.6308,-3.33583 -1.06853,-0.9147 -1.35045,-1.35883 -1.27489,-2.00845 0.14554,-1.25114 0.93658,-1.17028 2.67539,0.27343 2.49934,2.07519 4.60392,2.95945 7.41715,3.11636 3.06651,0.17102 5.25526,-0.58772 8.26349,-2.86467 2.15309,-1.62965 2.94462,-1.74315 3.19751,-0.45841 0.24885,1.26417 -4.90105,4.59028 -8.1656,5.27387 -1.92878,0.40385 -3.42806,0.40487 -5.48225,0.004 z m 7.04774,-11.40685 c -0.7735,-0.7735 -0.87732,-2.18482 -0.22623,-3.07524 0.31773,-0.43453 0.8339,-0.61144 1.78396,-0.61144 1.50661,0 2.23104,0.66798 2.23104,2.0572 0,1.21063 -0.63881,1.9009 -1.95717,2.11484 -0.91529,0.14853 -1.29953,0.0467 -1.8316,-0.48536 z m -11.73934,-0.67972 c -0.80634,-0.32446 -1.20989,-1.5258 -0.91167,-2.714 0.20319,-0.80958 1.25361,-1.42297 2.43681,-1.42297 0.92116,0 1.89157,1.14457 1.89157,2.23105 0,1.75988 -1.5839,2.64341 -3.41671,1.90592 z m 40.1817,47.80081 c -1.30938,-0.39984 -2.89379,-2.22751 -3.15967,-3.64473 -0.87338,-4.65556 4.32064,-8.00905 7.83048,-5.05572 2.70046,2.27229 2.54064,6.01134 -0.34838,8.15046 -0.9819,0.72704 -2.93072,0.975 -4.32243,0.54999 z m 4.38753,-2.17983 c 1.08895,-1.08894 1.23738,-1.4184 1.23738,-2.74661 0,-1.32821 -0.14843,-1.65767 -1.23738,-2.74664 -1.08896,-1.08894 -1.41844,-1.23737 -2.74663,-1.23737 -1.32819,0 -1.65767,0.14843 -2.74663,1.23737 -1.08895,1.08897 -1.23738,1.41843 -1.23738,2.74664 0,1.32821 0.14843,1.65767 1.23738,2.74661 1.08896,1.08898 1.41844,1.2374 2.74663,1.2374 1.32819,0 1.65767,-0.14842 2.74663,-1.2374 z m -12.14874,-17.90817 c -2.8671,-1.20457 -4.11426,-4.89597 -2.47025,-7.31152 1.1994,-1.76226 2.30485,-2.38715 4.22305,-2.38715 4.97009,0 6.75541,6.14044 2.66586,9.16896 -0.98646,0.73054 -3.28487,1.00607 -4.41866,0.52971 z m 4.49943,-1.85253 c 1.04579,-1.04579 1.23739,-1.44531 1.23739,-2.58027 0,-2.42413 -1.65705,-4.15034 -3.98402,-4.15034 -2.32696,0 -3.98401,1.72621 -3.98401,4.15034 0,1.13496 0.1916,1.53448 1.23739,2.58027 1.08895,1.08897 1.41843,1.2374 2.74662,1.2374 1.3282,0 1.65768,-0.14843 2.74663,-1.2374 z m -65.534673,-12.60063 c -0.52589,-0.23473 -1.37727,-0.87437 -1.89196,-1.42143 -0.76412,-0.81216 -0.95772,-1.33094 -1.05529,-2.82763 -0.15703,-2.40892 0.58252,-3.79233 2.57613,-4.81887 4.88811,-2.51696 9.55175,3.61443 5.9068,7.7658 -1.41561,1.61228 -3.65874,2.13992 -5.53568,1.30213 z m 3.69522,-0.99797 c 2.85082,-1.47422 2.85082,-5.8254 0,-7.29963 -1.71175,-0.88517 -3.13408,-0.6516 -4.52952,0.74382 -1.12223,1.12225 -1.23738,1.39268 -1.23738,2.906 0,1.51332 0.11515,1.78376 1.23738,2.90597 1.39544,1.39546 2.81777,1.62902 4.52952,0.74384 z m 63.236203,-5.3592 c -0.52589,-0.24421 -1.38644,-0.90119 -1.91233,-1.45994 -0.87128,-0.92571 -0.95616,-1.21053 -0.95616,-3.20832 0,-2.06513 0.0634,-2.25786 1.09255,-3.31963 1.93191,-1.99323 4.49072,-2.24645 6.59158,-0.6523 2.66324,2.02088 2.64903,5.9337 -0.029,7.97632 -1.26558,0.96528 -3.47712,1.27202 -4.78668,0.66387 z m 3.69521,-1.33395 c 2.01958,-1.04435 2.74322,-3.55364 1.57659,-5.46697 -1.6107,-2.64163 -5.30765,-2.64641 -6.86567,-0.009 -0.65146,1.10284 -0.73659,2.97805 -0.18222,4.0139 0.92329,1.72517 3.58629,2.43675 5.4713,1.46197 z M -115.68708,905.5003 c -2.86693,-1.20397 -4.11427,-4.89581 -2.47025,-7.31136 1.20456,-1.76987 2.30526,-2.38921 4.21367,-2.37095 4.77493,0.0457 6.70274,6.01221 2.88374,8.9251 -1.1622,0.88645 -3.43411,1.25823 -4.62716,0.75721 z m 3.53569,-1.10854 c 2.85083,-1.47422 2.85083,-5.82541 0,-7.29963 -1.71174,-0.88518 -3.13408,-0.6516 -4.52951,0.74383 -1.12223,1.12223 -1.23739,1.39268 -1.23739,2.90599 0,1.51331 0.11516,1.78375 1.23739,2.90598 1.39543,1.39544 2.81777,1.62901 4.52951,0.74383 z m 46.179773,0.7326 c -1.76211,-0.89316 -2.6675,-2.38062 -2.6675,-4.38241 0,-0.89298 0.2495,-1.91859 0.62635,-2.57474 0.68526,-1.19313 2.94113,-2.5248 4.27705,-2.5248 1.33592,0 3.5918,1.33167 4.27706,2.5248 1.42998,2.48979 0.37805,5.90802 -2.17494,7.06747 -1.71635,0.77947 -2.6283,0.75628 -4.33802,-0.11032 z m 4.11673,-0.70083 c 2.77421,-1.43461 2.77421,-5.92856 0,-7.36317 -2.76296,-1.42878 -5.82663,0.50702 -5.82663,3.68159 0,3.17784 3.06081,5.11183 5.82663,3.68158 z"
       style="fill:#ffffff" />
    <path
       style="fill:#ffffff"
       d="m 34.239379,1016.6885 c -2.185323,-0.6694 -3.71777,-1.4444 -3.71777,-1.8805 0,-1.2655 1.493736,-1.3991 4.495467,-0.4019 3.571402,1.1861 5.354303,1.157 7.713006,-0.1261 1.42508,-0.7756 3.070284,-1 7.344295,-1.0022 3.029311,0 5.825,-0.2077 6.212647,-0.4585 0.516997,-0.3342 -0.03197,-1.2616 -2.059932,-3.4808 -2.981373,-3.262 -6.088898,-8.4072 -7.451748,-12.33788 -0.467608,-1.3488 -0.971609,-2.78656 -1.12,-3.19513 -0.190316,-0.52388 -0.724732,-0.2557 -1.814317,0.91059 -4.316072,4.6204 -11.887167,3.06884 -14.168054,-2.90374 -2.995924,-7.84471 6.172764,-15.04433 12.983129,-10.19493 l 1.510223,1.07539 0.330292,-1.2323 c 0.181658,-0.67794 0.333679,-1.86186 0.337809,-2.63139 0.01383,-2.66179 1.680252,-7.98365 3.950907,-12.62084 1.81513,-3.70687 3.274097,-5.66276 7.154688,-9.59169 3.505835,-3.54945 4.874612,-5.3204 4.874612,-6.30678 0,-0.87194 0.763684,-2.09793 2.096827,-3.36612 l 2.096828,-1.99463 -1.524739,-3.29017 c -3.788915,-8.17604 -3.071995,-18.65297 1.795463,-26.23825 2.178238,-3.3945 7.844822,-8.67534 11.586647,-10.79792 19.053655,-10.80837 44.806121,-0.59284 49.499711,19.63559 1.51351,6.52291 -0.0649,15.19281 -3.85378,21.16716 -1.6431,2.59087 -1.64434,2.5992 -0.55269,3.69089 1.11374,1.11375 1.28957,1.83472 1.10959,4.55003 -0.0759,1.14556 0.59751,2.2928 2.69004,4.58233 9.69758,10.61063 12.34704,27.27179 6.45534,40.59394 -1.46035,3.30215 -4.94007,8.66915 -7.54214,11.63275 l -1.61973,1.8447 1.23977,0.3323 c 0.6819,0.1826 2.87147,0.3356 4.86572,0.3398 1.99425,0 5.05492,0.2944 6.80151,0.6452 2.43748,0.4895 4.19508,0.4816 7.56194,-0.033 4.20614,-0.6439 4.5717,-0.6107 8.8958,0.8076 5.0794,1.6661 5.85086,2.1489 4.92009,3.0796 -0.48055,0.4806 -1.79911,0.3233 -5.40008,-0.6444 -4.18488,-1.1247 -5.24149,-1.2143 -8.68822,-0.7379 -2.27849,0.3149 -5.08368,0.3495 -6.68959,0.083 -1.52109,-0.253 -5.36809,-0.5824 -8.54885,-0.7322 -3.18076,-0.1503 -6.40284,-0.3538 -7.16016,-0.4536 -0.75735,-0.1002 -1.68679,-0.22 -2.06545,-0.2675 -1.52898,-0.1911 -0.51879,-2.5813 2.47853,-5.8649 6.87396,-7.5302 10.60856,-16.56451 10.58882,-25.61566 -0.0155,-6.976 -3.78817,-16.57059 -8.64124,-21.97442 l -2.66957,-2.97245 -2.30316,1.59549 c -1.26674,0.87756 -2.31259,1.72478 -2.32409,1.88269 -0.0121,0.15795 1.22064,1.99019 2.73806,4.07155 3.47514,4.76679 6.86585,11.50052 7.72572,15.34295 0.56517,2.52527 0.53281,3.20701 -0.22143,4.66553 -0.93719,1.81226 -3.12007,3.6024 -5.1685,4.23839 -2.66315,0.82682 -3.22552,0.0742 -5.65371,-7.55894 -4.32301,-13.59083 -7.46788,-17.32318 -9.92191,-11.77545 -1.05184,2.37786 -4.94103,17.40993 -4.94103,19.09761 0,1.73778 -1.455624,2.89509 -4.177197,3.32115 -3.36622,0.52696 -7.977641,-0.26796 -8.938502,-1.54073 -1.501737,-1.98916 0.723125,-9.58178 5.606845,-19.13352 1.548832,-3.02936 2.889108,-5.65763 2.978403,-5.84046 0.08934,-0.18301 -2.138875,-0.50495 -4.951465,-0.71544 -11.073399,-0.82913 -19.538904,-3.55065 -25.177787,-8.09448 l -3.496883,-2.81778 -4.011633,4.15727 c -13.702535,14.20017 -13.29605,36.13018 0.927663,50.0481 3.298686,3.2278 3.996909,4.9704 2.272696,5.672 -0.530113,0.2156 -4.444212,0.4791 -8.697987,0.5853 -6.301436,0.1572 -8.188955,0.3995 -10.189476,1.3069 -2.956765,1.3414 -3.606583,1.3312 -8.376268,-0.1296 z m 6.725153,-21.66414 c 4.568393,-2.69856 4.568393,-9.82011 0,-12.51871 -3.622101,-2.13974 -8.425519,-0.22482 -9.875173,3.93644 -0.711718,2.04314 -0.711718,2.6027 0,4.64589 1.449654,4.16118 6.253072,6.0759 9.875173,3.93638 z M 105.9788,952.25309 c 8.33176,-2.82937 12.30412,-5.97495 15.04796,-11.91603 1.3998,-3.03089 1.71127,-4.48748 1.91124,-8.93797 0.36586,-8.14286 -1.65537,-13.12368 -7.70756,-18.99314 -5.75018,-5.57658 -11.14948,-7.88175 -19.441118,-8.30021 -9.643582,-0.4867 -16.785569,2.09508 -23.170387,8.37589 -8.122995,7.99068 -9.945158,18.58059 -4.939711,28.70844 4.702702,9.51526 12.16715,13.05123 26.733149,12.6637 6.174567,-0.16433 8.136087,-0.43579 11.566427,-1.60068 z m -15.421908,-5.95231 c -3.328464,-0.64997 -8.556109,-3.27998 -11.458699,-5.76466 -1.846529,-1.58068 -2.333714,-2.34819 -2.20314,-3.47081 0.251509,-2.16209 1.618506,-2.02236 4.623347,0.47252 4.319115,3.58615 7.956043,5.11423 12.817591,5.38539 5.299235,0.29554 9.081619,-1.01565 14.280149,-4.95044 3.72076,-2.8162 5.0886,-3.01234 5.52562,-0.79218 0.43004,2.1846 -8.46951,7.93247 -14.11098,9.11379 -3.33313,0.69789 -5.924039,0.69964 -9.473888,0.007 z m 12.179208,-19.7122 c -1.33668,-1.3367 -1.51609,-3.77559 -0.39094,-5.31434 0.54906,-0.7509 1.44106,-1.05662 3.08286,-1.05662 2.60357,0 3.85546,1.15434 3.85546,3.55506 0,2.09208 -1.10393,3.28495 -3.38219,3.65465 -1.58171,0.25667 -2.24572,0.0807 -3.16519,-0.83875 z m -20.286772,-1.17463 c -1.393437,-0.5607 -2.090812,-2.63673 -1.575458,-4.69006 0.351133,-1.39904 2.166366,-2.45904 4.211056,-2.45904 1.591859,0 3.268825,1.97793 3.268825,3.85547 0,3.04127 -2.73714,4.56809 -5.904423,3.29363 z m 69.438072,82.60475 c -2.26275,-0.691 -5.00077,-3.8493 -5.46023,-6.2984 -1.5093,-8.0454 7.4665,-13.84059 13.53186,-8.73704 4.66667,3.92678 4.39048,10.38834 -0.60203,14.08494 -1.69683,1.2563 -5.06459,1.6849 -7.4696,0.9505 z m 7.58209,-3.767 c 1.88183,-1.8818 2.13833,-2.451 2.13833,-4.74656 0,-2.29526 -0.2565,-2.86447 -2.13833,-4.74635 -1.88183,-1.8818 -2.4512,-2.13845 -4.74645,-2.13845 -2.29525,0 -2.86463,0.25665 -4.74646,2.13845 -1.88181,1.88188 -2.13831,2.45109 -2.13831,4.74635 0,2.29556 0.2565,2.86476 2.13831,4.74656 1.88183,1.8817 2.45121,2.1384 4.74646,2.1384 2.29525,0 2.86462,-0.2567 4.74645,-2.1384 z m -20.99425,-30.94715 c -4.95465,-2.08167 -7.10987,-8.46079 -4.26885,-12.6351 2.07268,-3.04535 3.98302,-4.12522 7.29786,-4.12522 8.58882,0 11.67404,10.61139 4.60688,15.84495 -1.7047,1.26237 -5.67659,1.73846 -7.63589,0.91537 z m 7.77547,-3.20131 c 1.80723,-1.80725 2.13833,-2.4978 2.13833,-4.45902 0,-4.18919 -2.86355,-7.17226 -6.88479,-7.17226 -4.02123,0 -6.88477,2.98307 -6.88477,7.17226 0,1.96122 0.3311,2.65177 2.13834,4.45902 1.88181,1.88173 2.4512,2.13835 4.74643,2.13835 2.29527,0 2.86464,-0.25662 4.74646,-2.13835 z M 33.000122,948.32797 c -0.908792,-0.40563 -2.380063,-1.51099 -3.269499,-2.45636 -1.320478,-1.4035 -1.655038,-2.30001 -1.823649,-4.88644 -0.271364,-4.16286 1.006653,-6.55354 4.451815,-8.3275 8.447155,-4.34956 16.5064,6.2461 10.207555,13.42009 -2.446318,2.78619 -6.322678,3.698 -9.566222,2.25021 z m 6.38572,-1.72458 c 4.926507,-2.54761 4.926507,-10.06689 0,-12.61451 -2.958082,-1.52966 -5.416012,-1.12603 -7.827476,1.2854 -1.939328,1.93936 -2.138318,2.40669 -2.138318,5.02186 0,2.61518 0.19899,3.08252 2.138318,5.02181 2.411464,2.41151 4.869394,2.81511 7.827476,1.28544 z m 109.278588,-9.26125 c -0.90879,-0.42202 -2.3959,-1.55734 -3.30469,-2.52293 -1.50567,-1.59971 -1.65235,-2.09192 -1.65235,-5.5443 0,-3.56875 0.10956,-3.9018 1.88804,-5.73665 3.33854,-3.44452 7.76043,-3.8821 11.39092,-1.12724 4.60236,3.49227 4.57779,10.25403 -0.0501,13.78388 -2.18705,1.66811 -6.00882,2.19818 -8.27187,1.14724 z m 6.3857,-2.30521 c 3.49005,-1.80473 4.74056,-6.14104 2.72451,-9.44747 -2.78345,-4.565 -9.17215,-4.57327 -11.86458,-0.0155 -1.12578,1.90582 -1.27289,5.14638 -0.31489,6.93643 1.59554,2.98127 6.19747,4.21096 9.45496,2.52643 z M 45.943799,912.16743 c -4.954347,-2.08058 -7.109878,-8.46045 -4.268844,-12.63478 2.081603,-3.0585 3.983724,-4.1288 7.28165,-4.09724 8.251567,0.0789 11.583018,10.38971 4.983398,15.42349 -2.0084,1.53187 -5.934493,2.17434 -7.996204,1.30853 z m 6.110032,-1.91568 c 4.926524,-2.5476 4.926524,-10.06689 0,-12.61449 -2.95806,-1.52968 -5.416009,-1.12604 -7.827455,1.28541 -1.939328,1.93933 -2.138336,2.40669 -2.138336,5.02185 0,2.61515 0.199008,3.0825 2.138336,5.02183 2.411446,2.41146 4.869395,2.81509 7.827455,1.2854 z m 79.803359,1.26602 c -3.04512,-1.54348 -4.60973,-4.11395 -4.60973,-7.57325 0,-1.54316 0.43117,-3.31552 1.08241,-4.44941 1.18419,-2.06187 5.08256,-4.36312 7.39117,-4.36312 2.30861,0 6.20699,2.30125 7.39119,4.36312 2.47115,4.30261 0.65331,10.20966 -3.75852,12.2133 -2.96603,1.347 -4.54196,1.30693 -7.49652,-0.19064 z m 7.11412,-1.21111 c 4.79411,-2.47915 4.79411,-10.24516 0,-12.72431 -4.77468,-2.46908 -10.06901,0.87619 -10.06901,6.36217 0,5.49163 5.28939,8.83376 10.06901,6.36214 z"
       id="path4071"
       inkscape:connector-curvature="0" />
  </g>
</svg>
